<mxfile host="Electron" agent="Mozilla/5.0 (Windows NT 10.0; Win64; x64) AppleWebKit/537.36 (KHTML, like Gecko) draw.io/24.7.8 Chrome/128.0.6613.36 Electron/32.0.1 Safari/537.36" version="24.7.8">
  <diagram name="Page-1" id="Aq4kbopEWrjM9SYJoGlc">
    <mxGraphModel dx="3781" dy="2365" grid="1" gridSize="10" guides="1" tooltips="1" connect="1" arrows="1" fold="1" page="1" pageScale="1" pageWidth="827" pageHeight="1169" math="0" shadow="0">
      <root>
        <mxCell id="0" />
        <mxCell id="1" parent="0" />
        <mxCell id="es0-CAbEwklElxK_QyLV-5" value="&lt;b&gt;&lt;font style=&quot;font-size: 18px;&quot;&gt;Rôle&lt;/font&gt;&lt;/b&gt;" style="swimlane;childLayout=stackLayout;horizontal=1;startSize=50;horizontalStack=0;rounded=1;fontSize=14;fontStyle=0;strokeWidth=2;resizeParent=0;resizeLast=1;shadow=0;dashed=0;align=center;arcSize=4;whiteSpace=wrap;html=1;labelBackgroundColor=none;fillColor=#FAE5C7;strokeColor=#0F8B8D;fontColor=#143642;" parent="1" vertex="1">
          <mxGeometry x="-190" y="430" width="430" height="100" as="geometry" />
        </mxCell>
        <mxCell id="es0-CAbEwklElxK_QyLV-6" value="&lt;b&gt;&lt;font color=&quot;#000000&quot;&gt;Rôle_Id : int&lt;br&gt;&lt;/font&gt;&lt;/b&gt;&lt;div&gt;&lt;b style=&quot;&quot;&gt;&lt;font color=&quot;#000000&quot;&gt;nom_rôle : enum (&#39;administrateur&#39;, &#39;utilisateur&#39;,&#39;support technique&#39;)&lt;/font&gt;&lt;/b&gt;&lt;/div&gt;" style="align=left;strokeColor=none;fillColor=none;spacingLeft=4;fontSize=12;verticalAlign=top;resizable=0;rotatable=0;part=1;html=1;labelBackgroundColor=none;fontColor=#143642;" parent="es0-CAbEwklElxK_QyLV-5" vertex="1">
          <mxGeometry y="50" width="430" height="50" as="geometry" />
        </mxCell>
        <mxCell id="es0-CAbEwklElxK_QyLV-7" value="&lt;b&gt;&lt;font style=&quot;font-size: 19px;&quot;&gt;Piece jointe&lt;/font&gt;&lt;/b&gt;" style="swimlane;childLayout=stackLayout;horizontal=1;startSize=50;horizontalStack=0;rounded=1;fontSize=14;fontStyle=0;strokeWidth=2;resizeParent=0;resizeLast=1;shadow=0;dashed=0;align=center;arcSize=4;whiteSpace=wrap;html=1;labelBackgroundColor=none;fillColor=#FAE5C7;strokeColor=#0F8B8D;fontColor=#143642;" parent="1" vertex="1">
          <mxGeometry x="1050" y="380" width="180" height="155" as="geometry" />
        </mxCell>
        <mxCell id="es0-CAbEwklElxK_QyLV-8" value="&lt;b&gt;Piece_jointe_Id : int&lt;/b&gt;&lt;div&gt;&lt;b&gt;Ticket_Id : int&lt;/b&gt;&lt;/div&gt;&lt;div&gt;&lt;b&gt;nom_fichier : varchar (255)&lt;/b&gt;&lt;/div&gt;&lt;div&gt;&lt;b&gt;chemin_fichier : varchar (255)&lt;/b&gt;&lt;/div&gt;&lt;div&gt;&lt;b&gt;type_fichier : varchar (250)&lt;/b&gt;&lt;/div&gt;&lt;div&gt;&lt;b&gt;date_ajout : timestamp&lt;/b&gt;&lt;/div&gt;" style="align=left;strokeColor=none;fillColor=none;spacingLeft=4;fontSize=12;verticalAlign=top;resizable=0;rotatable=0;part=1;html=1;labelBackgroundColor=none;fontColor=#143642;" parent="es0-CAbEwklElxK_QyLV-7" vertex="1">
          <mxGeometry y="50" width="180" height="105" as="geometry" />
        </mxCell>
        <mxCell id="es0-CAbEwklElxK_QyLV-9" value="&lt;b&gt;&lt;font style=&quot;font-size: 18px;&quot;&gt;Utilisateur&lt;/font&gt;&lt;/b&gt;" style="swimlane;childLayout=stackLayout;horizontal=1;startSize=50;horizontalStack=0;rounded=1;fontSize=14;fontStyle=0;strokeWidth=2;resizeParent=0;resizeLast=1;shadow=0;dashed=0;align=center;arcSize=4;whiteSpace=wrap;html=1;labelBackgroundColor=none;fillColor=#FAE5C7;strokeColor=#0F8B8D;fontColor=#143642;" parent="1" vertex="1">
          <mxGeometry x="-90" y="80" width="360" height="230" as="geometry" />
        </mxCell>
        <mxCell id="es0-CAbEwklElxK_QyLV-10" value="&lt;b&gt;User_Id : int&lt;/b&gt;&lt;div&gt;&lt;b&gt;nom : varcher (50)&lt;/b&gt;&lt;/div&gt;&lt;div&gt;&lt;b&gt;prenom : varchar (50)&lt;/b&gt;&lt;/div&gt;&lt;div&gt;&lt;b&gt;mot_de_passe : varchar(100)&lt;/b&gt;&lt;/div&gt;&lt;div&gt;&lt;b&gt;confirm_mdp : varchar (100)&lt;/b&gt;&lt;/div&gt;&lt;div&gt;&lt;b&gt;role : enum(&#39;utilisateur&#39;,&#39;support technique&#39;,&#39;administrateur&#39;)&lt;/b&gt;&lt;/div&gt;&lt;div&gt;&lt;b&gt;CP: varchar (9)&lt;/b&gt;&lt;/div&gt;&lt;div&gt;&lt;b&gt;date_creation : timestamp&lt;/b&gt;&lt;/div&gt;&lt;div&gt;&lt;b&gt;derniere_connexion : timestamp&lt;/b&gt;&lt;/div&gt;&lt;div&gt;&lt;b&gt;statut_compte : enum (&#39;Actif&#39;, &#39;Inactif&#39;, &#39;Suspendu&#39;)&lt;/b&gt;&lt;/div&gt;" style="align=left;strokeColor=none;fillColor=none;spacingLeft=4;fontSize=12;verticalAlign=top;resizable=0;rotatable=0;part=1;html=1;labelBackgroundColor=none;fontColor=#143642;" parent="es0-CAbEwklElxK_QyLV-9" vertex="1">
          <mxGeometry y="50" width="360" height="180" as="geometry" />
        </mxCell>
        <mxCell id="es0-CAbEwklElxK_QyLV-21" value="&lt;span style=&quot;font-size: 17px;&quot;&gt;&lt;b&gt;Tickets&lt;/b&gt;&lt;/span&gt;" style="swimlane;childLayout=stackLayout;horizontal=1;startSize=50;horizontalStack=0;rounded=1;fontSize=14;fontStyle=0;strokeWidth=2;resizeParent=0;resizeLast=1;shadow=0;dashed=0;align=center;arcSize=4;whiteSpace=wrap;html=1;fillColor=#FAE5C7;strokeColor=#0F8B8D;labelBackgroundColor=none;fontColor=#143642;" parent="1" vertex="1">
          <mxGeometry x="650" y="75" width="410" height="240" as="geometry" />
        </mxCell>
        <mxCell id="es0-CAbEwklElxK_QyLV-23" value="&lt;b&gt;&lt;i style=&quot;&quot;&gt;&lt;font color=&quot;#000000&quot;&gt;Ticket_ID : int&lt;/font&gt;&lt;/i&gt;&lt;/b&gt;&lt;div&gt;&lt;b&gt;&lt;i style=&quot;&quot;&gt;&lt;font color=&quot;#000000&quot;&gt;User_Id : int&lt;/font&gt;&lt;/i&gt;&lt;/b&gt;&lt;/div&gt;&lt;div&gt;&lt;b&gt;&lt;i style=&quot;&quot;&gt;&lt;font color=&quot;#000000&quot;&gt;titre : varchar (100)&lt;/font&gt;&lt;/i&gt;&lt;/b&gt;&lt;/div&gt;&lt;div&gt;&lt;b&gt;&lt;i style=&quot;&quot;&gt;&lt;font color=&quot;#000000&quot;&gt;description : text&lt;/font&gt;&lt;/i&gt;&lt;/b&gt;&lt;/div&gt;&lt;div&gt;&lt;b&gt;&lt;i style=&quot;&quot;&gt;&lt;font color=&quot;#000000&quot;&gt;date_creation : timestamp&lt;/font&gt;&lt;/i&gt;&lt;/b&gt;&lt;/div&gt;&lt;div&gt;&lt;b&gt;&lt;i style=&quot;&quot;&gt;&lt;font color=&quot;#000000&quot;&gt;Statut : enum ( &#39;Ouvert&#39;, &#39;en cours&#39;, &#39;résolu&#39;)&lt;/font&gt;&lt;/i&gt;&lt;/b&gt;&lt;/div&gt;&lt;div&gt;&lt;b&gt;&lt;i style=&quot;&quot;&gt;&lt;font color=&quot;#000000&quot;&gt;Priorité : enum (&#39;Elevée&#39;, &#39;haute&#39;, &#39;moyenne&#39;, &#39;basse&#39;)&lt;/font&gt;&lt;/i&gt;&lt;/b&gt;&lt;/div&gt;&lt;div&gt;&lt;b&gt;&lt;i style=&quot;&quot;&gt;&lt;font color=&quot;#000000&quot;&gt;Categorie : enum (&#39;Power Apps&#39;, &#39;power automate&#39;, &#39;power BI&#39;)&lt;/font&gt;&lt;/i&gt;&lt;/b&gt;&lt;/div&gt;&lt;div&gt;&lt;b&gt;&lt;i style=&quot;&quot;&gt;&lt;font color=&quot;#000000&quot;&gt;date_cloture : timestamp&lt;/font&gt;&lt;/i&gt;&lt;/b&gt;&lt;/div&gt;&lt;div&gt;&lt;b&gt;&lt;i style=&quot;&quot;&gt;&lt;font color=&quot;#000000&quot;&gt;cree_par : int&lt;/font&gt;&lt;/i&gt;&lt;/b&gt;&lt;/div&gt;&lt;div&gt;&lt;b&gt;&lt;i style=&quot;&quot;&gt;&lt;font color=&quot;#000000&quot;&gt;commentaire_resolution : text&lt;/font&gt;&lt;/i&gt;&lt;/b&gt;&lt;/div&gt;" style="text;html=1;align=center;verticalAlign=middle;resizable=0;points=[];autosize=1;strokeColor=none;fillColor=none;labelBackgroundColor=none;fontColor=#143642;" parent="es0-CAbEwklElxK_QyLV-21" vertex="1">
          <mxGeometry y="50" width="410" height="190" as="geometry" />
        </mxCell>
        <mxCell id="r3hg1146miaM-FM4Wl79-9" value="&lt;font style=&quot;font-size: 16px;&quot;&gt;&lt;b&gt;Statut&lt;/b&gt;&lt;/font&gt;" style="swimlane;childLayout=stackLayout;horizontal=1;startSize=50;horizontalStack=0;rounded=1;fontSize=14;fontStyle=0;strokeWidth=2;resizeParent=0;resizeLast=1;shadow=0;dashed=0;align=center;arcSize=4;whiteSpace=wrap;html=1;fillColor=#FAE5C7;strokeColor=#0F8B8D;labelBackgroundColor=none;fontColor=#143642;" parent="1" vertex="1">
          <mxGeometry x="1241" y="315" width="300" height="150" as="geometry" />
        </mxCell>
        <mxCell id="r3hg1146miaM-FM4Wl79-10" value="&lt;b&gt;&lt;u&gt;Statut_Id&lt;/u&gt; : int&lt;/b&gt;&lt;div&gt;&lt;b&gt;&lt;i&gt;&lt;u&gt;Nom&lt;/u&gt;&lt;/i&gt; : enum (&#39;ouvert&#39;, &#39;en cours&#39;, &#39;résolu&#39;, &#39;fermé&#39;)&lt;/b&gt;&lt;/div&gt;&lt;div&gt;&lt;b&gt;&lt;u&gt;Description&lt;/u&gt; : text&lt;font color=&quot;#ff0000&quot;&gt;&lt;br&gt;&lt;/font&gt;&lt;/b&gt;&lt;/div&gt;" style="text;html=1;align=center;verticalAlign=middle;resizable=0;points=[];autosize=1;strokeColor=none;fillColor=none;labelBackgroundColor=none;fontColor=#143642;" parent="r3hg1146miaM-FM4Wl79-9" vertex="1">
          <mxGeometry y="50" width="300" height="100" as="geometry" />
        </mxCell>
        <mxCell id="xiB_6Yv6OD1pWSvtleal-10" value="&lt;b&gt;&lt;font style=&quot;font-size: 18px;&quot;&gt;Priorité&lt;/font&gt;&lt;/b&gt;" style="swimlane;childLayout=stackLayout;horizontal=1;startSize=50;horizontalStack=0;rounded=1;fontSize=14;fontStyle=0;strokeWidth=2;resizeParent=0;resizeLast=1;shadow=0;dashed=0;align=center;arcSize=4;whiteSpace=wrap;html=1;labelBackgroundColor=none;fillColor=#FAE5C7;strokeColor=#0F8B8D;fontColor=#143642;" vertex="1" parent="1">
          <mxGeometry x="1210" y="580" width="430" height="100" as="geometry" />
        </mxCell>
        <mxCell id="xiB_6Yv6OD1pWSvtleal-11" value="&lt;font color=&quot;#000000&quot;&gt;&lt;b&gt;Priorite_Id : int&lt;/b&gt;&lt;/font&gt;&lt;div&gt;&lt;font color=&quot;#000000&quot;&gt;&lt;b&gt;Nom : enum (&#39;Elevée&#39;, &#39;haute&#39;, &#39;moyenne&#39;, &#39;basse&#39;)&lt;/b&gt;&lt;/font&gt;&lt;/div&gt;" style="align=left;strokeColor=none;fillColor=none;spacingLeft=4;fontSize=12;verticalAlign=top;resizable=0;rotatable=0;part=1;html=1;labelBackgroundColor=none;fontColor=#143642;" vertex="1" parent="xiB_6Yv6OD1pWSvtleal-10">
          <mxGeometry y="50" width="430" height="50" as="geometry" />
        </mxCell>
        <mxCell id="xiB_6Yv6OD1pWSvtleal-13" value="&lt;b&gt;&lt;font style=&quot;font-size: 19px;&quot;&gt;Commentaire_ticket&lt;/font&gt;&lt;/b&gt;" style="swimlane;childLayout=stackLayout;horizontal=1;startSize=50;horizontalStack=0;rounded=1;fontSize=14;fontStyle=0;strokeWidth=2;resizeParent=0;resizeLast=1;shadow=0;dashed=0;align=center;arcSize=4;whiteSpace=wrap;html=1;labelBackgroundColor=none;fillColor=#FAE5C7;strokeColor=#0F8B8D;fontColor=#143642;" vertex="1" parent="1">
          <mxGeometry x="520" y="660" width="230" height="140" as="geometry" />
        </mxCell>
        <mxCell id="xiB_6Yv6OD1pWSvtleal-14" value="&lt;b&gt;Commentaire_id : int&lt;/b&gt;&lt;div&gt;&lt;b&gt;Ticket_Id: int&lt;/b&gt;&lt;/div&gt;&lt;div&gt;&lt;b&gt;User_Id : int&lt;/b&gt;&lt;/div&gt;&lt;div&gt;&lt;b&gt;contenu : text&amp;nbsp;&lt;/b&gt;&lt;/div&gt;&lt;div&gt;&lt;b&gt;date_commentaire : timestamp&amp;nbsp;&lt;br&gt;&lt;/b&gt;&lt;div&gt;&lt;b&gt;&lt;br&gt;&lt;/b&gt;&lt;/div&gt;&lt;/div&gt;" style="align=left;strokeColor=none;fillColor=none;spacingLeft=4;fontSize=12;verticalAlign=top;resizable=0;rotatable=0;part=1;html=1;labelBackgroundColor=none;fontColor=#143642;" vertex="1" parent="xiB_6Yv6OD1pWSvtleal-13">
          <mxGeometry y="50" width="230" height="90" as="geometry" />
        </mxCell>
        <mxCell id="xiB_6Yv6OD1pWSvtleal-15" value="&lt;b&gt;&lt;font style=&quot;font-size: 19px;&quot;&gt;Notification_tickets&lt;/font&gt;&lt;/b&gt;" style="swimlane;childLayout=stackLayout;horizontal=1;startSize=50;horizontalStack=0;rounded=1;fontSize=14;fontStyle=0;strokeWidth=2;resizeParent=0;resizeLast=1;shadow=0;dashed=0;align=center;arcSize=4;whiteSpace=wrap;html=1;labelBackgroundColor=none;fillColor=#FAE5C7;strokeColor=#0F8B8D;fontColor=#143642;" vertex="1" parent="1">
          <mxGeometry x="110" y="830" width="340" height="180" as="geometry" />
        </mxCell>
        <mxCell id="xiB_6Yv6OD1pWSvtleal-16" value="&lt;div&gt;&lt;div&gt;&lt;b&gt;Notification_Id : int&lt;/b&gt;&lt;/div&gt;&lt;/div&gt;&lt;div&gt;&lt;b&gt;Ticket_Id : int&lt;/b&gt;&lt;/div&gt;&lt;div&gt;&lt;b&gt;User_Id : int&lt;/b&gt;&lt;/div&gt;&lt;div&gt;&lt;b&gt;Type_notification : enum (&#39;sms&#39;, &#39;mail&#39;)&lt;/b&gt;&lt;/div&gt;&lt;div&gt;&lt;b&gt;Message : text&lt;/b&gt;&lt;/div&gt;&lt;div&gt;&lt;b&gt;Etat_notification : enum (&#39;envoyée&#39;,&#39;en attente&#39;,&#39;echouée&#39;)&lt;/b&gt;&lt;/div&gt;&lt;div&gt;&lt;b&gt;Date_envoi : datetime&lt;/b&gt;&lt;/div&gt;&lt;div&gt;&lt;b&gt;date_creation : timestamp&lt;/b&gt;&lt;/div&gt;" style="align=left;strokeColor=none;fillColor=none;spacingLeft=4;fontSize=12;verticalAlign=top;resizable=0;rotatable=0;part=1;html=1;labelBackgroundColor=none;fontColor=#143642;" vertex="1" parent="xiB_6Yv6OD1pWSvtleal-15">
          <mxGeometry y="50" width="340" height="130" as="geometry" />
        </mxCell>
        <mxCell id="xiB_6Yv6OD1pWSvtleal-17" value="&lt;b&gt;&lt;font style=&quot;font-size: 18px;&quot;&gt;Catégorie&lt;/font&gt;&lt;/b&gt;" style="swimlane;childLayout=stackLayout;horizontal=1;startSize=50;horizontalStack=0;rounded=1;fontSize=14;fontStyle=0;strokeWidth=2;resizeParent=0;resizeLast=1;shadow=0;dashed=0;align=center;arcSize=4;whiteSpace=wrap;html=1;labelBackgroundColor=none;fillColor=#FAE5C7;strokeColor=#0F8B8D;fontColor=#143642;" vertex="1" parent="1">
          <mxGeometry x="370" y="360" width="430" height="120" as="geometry" />
        </mxCell>
        <mxCell id="xiB_6Yv6OD1pWSvtleal-18" value="&lt;font color=&quot;#000000&quot;&gt;&lt;b&gt;Catégorie_Id : int&lt;/b&gt;&lt;/font&gt;&lt;div&gt;&lt;font color=&quot;#000000&quot;&gt;&lt;b&gt;Nom : enum (&#39;Power Apps&#39;, &#39;Power Bi&#39;, &#39;Power automate&#39;)&lt;/b&gt;&lt;/font&gt;&lt;/div&gt;&lt;div&gt;&lt;font color=&quot;#000000&quot;&gt;&lt;b&gt;Description : text&lt;/b&gt;&lt;/font&gt;&lt;/div&gt;" style="align=left;strokeColor=none;fillColor=none;spacingLeft=4;fontSize=12;verticalAlign=top;resizable=0;rotatable=0;part=1;html=1;labelBackgroundColor=none;fontColor=#143642;" vertex="1" parent="xiB_6Yv6OD1pWSvtleal-17">
          <mxGeometry y="50" width="430" height="70" as="geometry" />
        </mxCell>
        <mxCell id="xiB_6Yv6OD1pWSvtleal-19" value="&lt;b&gt;&lt;font style=&quot;font-size: 19px;&quot;&gt;Historique_ticket&lt;/font&gt;&lt;/b&gt;" style="swimlane;childLayout=stackLayout;horizontal=1;startSize=50;horizontalStack=0;rounded=1;fontSize=14;fontStyle=0;strokeWidth=2;resizeParent=0;resizeLast=1;shadow=0;dashed=0;align=center;arcSize=4;whiteSpace=wrap;html=1;labelBackgroundColor=none;fillColor=#FAE5C7;strokeColor=#0F8B8D;fontColor=#143642;" vertex="1" parent="1">
          <mxGeometry x="810" y="820" width="340" height="180" as="geometry" />
        </mxCell>
        <mxCell id="xiB_6Yv6OD1pWSvtleal-20" value="&lt;div&gt;&lt;div&gt;&lt;b&gt;historique_Id : int&lt;/b&gt;&lt;/div&gt;&lt;/div&gt;&lt;div&gt;&lt;b&gt;Tickt_Id : int&lt;/b&gt;&lt;/div&gt;&lt;div&gt;&lt;b&gt;Action : varchar (250)&lt;/b&gt;&lt;/div&gt;&lt;div&gt;&lt;b&gt;ancienne_valeur : text&lt;/b&gt;&lt;/div&gt;&lt;div&gt;&lt;b&gt;nouvelle_valeur : varchar (250)&lt;/b&gt;&lt;/div&gt;&lt;div&gt;&lt;b&gt;date_action : timestamp&lt;/b&gt;&lt;/div&gt;&lt;div&gt;&lt;b&gt;effectue_par : int&lt;/b&gt;&lt;/div&gt;" style="align=left;strokeColor=none;fillColor=none;spacingLeft=4;fontSize=12;verticalAlign=top;resizable=0;rotatable=0;part=1;html=1;labelBackgroundColor=none;fontColor=#143642;" vertex="1" parent="xiB_6Yv6OD1pWSvtleal-19">
          <mxGeometry y="50" width="340" height="130" as="geometry" />
        </mxCell>
        <mxCell id="xiB_6Yv6OD1pWSvtleal-21" value="&lt;font style=&quot;font-size: 20px;&quot;&gt;SNCF TICKETING&amp;nbsp;&lt;/font&gt;&lt;div style=&quot;font-size: 20px;&quot;&gt;&lt;font style=&quot;font-size: 20px;&quot;&gt;Diagramme de classe&amp;nbsp;&lt;/font&gt;&lt;/div&gt;" style="rounded=0;whiteSpace=wrap;html=1;fillColor=#f8cecc;strokeColor=#b85450;strokeWidth=2;" vertex="1" parent="1">
          <mxGeometry x="410" y="-130" width="340" height="170" as="geometry" />
        </mxCell>
        <mxCell id="xiB_6Yv6OD1pWSvtleal-22" value="" style="endArrow=classic;html=1;rounded=0;exitX=0.353;exitY=1.028;exitDx=0;exitDy=0;exitPerimeter=0;" edge="1" parent="1" source="es0-CAbEwklElxK_QyLV-10">
          <mxGeometry width="50" height="50" relative="1" as="geometry">
            <mxPoint x="20" y="360" as="sourcePoint" />
            <mxPoint x="37" y="420" as="targetPoint" />
          </mxGeometry>
        </mxCell>
        <mxCell id="xiB_6Yv6OD1pWSvtleal-23" value="" style="endArrow=none;dashed=1;html=1;dashPattern=1 3;strokeWidth=2;rounded=0;" edge="1" parent="1">
          <mxGeometry width="50" height="50" relative="1" as="geometry">
            <mxPoint x="300" y="200" as="sourcePoint" />
            <mxPoint x="620" y="200" as="targetPoint" />
          </mxGeometry>
        </mxCell>
        <mxCell id="xiB_6Yv6OD1pWSvtleal-26" value="" style="endArrow=none;dashed=1;html=1;dashPattern=1 3;strokeWidth=2;rounded=0;" edge="1" parent="1">
          <mxGeometry width="50" height="50" relative="1" as="geometry">
            <mxPoint x="1070" y="150" as="sourcePoint" />
            <mxPoint x="1260" y="300" as="targetPoint" />
          </mxGeometry>
        </mxCell>
        <mxCell id="xiB_6Yv6OD1pWSvtleal-27" value="" style="endArrow=none;dashed=1;html=1;dashPattern=1 3;strokeWidth=2;rounded=0;entryX=0.294;entryY=-0.026;entryDx=0;entryDy=0;entryPerimeter=0;" edge="1" parent="1" target="es0-CAbEwklElxK_QyLV-7">
          <mxGeometry width="50" height="50" relative="1" as="geometry">
            <mxPoint x="1000" y="330" as="sourcePoint" />
            <mxPoint x="1060" y="410" as="targetPoint" />
          </mxGeometry>
        </mxCell>
        <mxCell id="xiB_6Yv6OD1pWSvtleal-28" value="" style="endArrow=none;dashed=1;html=1;dashPattern=1 3;strokeWidth=2;rounded=0;" edge="1" parent="1">
          <mxGeometry width="50" height="50" relative="1" as="geometry">
            <mxPoint x="1380" y="530" as="sourcePoint" />
            <mxPoint x="1380" y="470" as="targetPoint" />
          </mxGeometry>
        </mxCell>
        <mxCell id="xiB_6Yv6OD1pWSvtleal-29" value="" style="endArrow=none;dashed=1;html=1;dashPattern=1 3;strokeWidth=2;rounded=0;" edge="1" parent="1">
          <mxGeometry width="50" height="50" relative="1" as="geometry">
            <mxPoint x="770" y="750" as="sourcePoint" />
            <mxPoint x="995" y="790" as="targetPoint" />
          </mxGeometry>
        </mxCell>
        <mxCell id="xiB_6Yv6OD1pWSvtleal-30" value="" style="endArrow=none;dashed=1;html=1;dashPattern=1 3;strokeWidth=2;rounded=0;" edge="1" parent="1">
          <mxGeometry width="50" height="50" relative="1" as="geometry">
            <mxPoint x="500" y="720" as="sourcePoint" />
            <mxPoint x="270" y="320" as="targetPoint" />
          </mxGeometry>
        </mxCell>
        <mxCell id="xiB_6Yv6OD1pWSvtleal-31" value="" style="endArrow=none;dashed=1;html=1;dashPattern=1 3;strokeWidth=2;rounded=0;" edge="1" parent="1">
          <mxGeometry width="50" height="50" relative="1" as="geometry">
            <mxPoint x="510" y="740" as="sourcePoint" />
            <mxPoint x="-10" y="540" as="targetPoint" />
          </mxGeometry>
        </mxCell>
        <mxCell id="xiB_6Yv6OD1pWSvtleal-35" value="" style="endArrow=none;dashed=1;html=1;dashPattern=1 3;strokeWidth=2;rounded=0;" edge="1" parent="1">
          <mxGeometry width="50" height="50" relative="1" as="geometry">
            <mxPoint x="280" y="810" as="sourcePoint" />
            <mxPoint x="-60" y="550" as="targetPoint" />
          </mxGeometry>
        </mxCell>
        <mxCell id="xiB_6Yv6OD1pWSvtleal-36" value="" style="curved=1;endArrow=classic;html=1;rounded=0;exitX=0.346;exitY=1.021;exitDx=0;exitDy=0;exitPerimeter=0;" edge="1" parent="1" source="es0-CAbEwklElxK_QyLV-23">
          <mxGeometry width="50" height="50" relative="1" as="geometry">
            <mxPoint x="1140" y="670" as="sourcePoint" />
            <mxPoint x="1200" y="660" as="targetPoint" />
            <Array as="points">
              <mxPoint x="1190" y="670" />
              <mxPoint x="1140" y="620" />
            </Array>
          </mxGeometry>
        </mxCell>
      </root>
    </mxGraphModel>
  </diagram>
</mxfile>
